<svg xmlns="http://www.w3.org/2000/svg" height="800" width="1200" viewBox="-15.01677 -3.030575 130.14534 18.18345"><path d="M8.4623.0592c.005-.02.0138-.0637.2137-.0588 1.9488.0825 6.7388.42 11.9975 1.7912 6.8463 1.7925 9.4975 3.35 7.31 3.8088-2.1687.45-10.5912.23-19.6 5.9675-.63.395-1.5725.9125-3.9212.2-.8925-.2688-1.9863-.65-3.2763-1.3188-5.5312-2.8762 9.9275-4.8387 12.6613-5.215 3.135-.4287 6.2937-.6925 3.4625-2.2412-.6838-.3713-2.4713-1.3475-8.6338-2.8025 0 0-.2337-.0487-.2137-.1313zM35.6985 4.908h2.1388c1.3812 0 2.2987-.1563 2.4312-1.3038.0337-.2888-.02-.5088-.1712-.6788-.2875-.3225-.9275-.3525-2.1925-.3525H36.421zm.7025 4.5987c1.0888 0 2.4125.0925 2.525-1.3575.0288-.3513-.0587-.6388-.2537-.8538-.2738-.2937-.7775-.3912-1.46-.3912h-2.1388l-.8062 2.6025zM39.1985.3954c1.67 0 2.8963.3763 3.54 1.0838.3863.43.5525.9775.4888 1.6262-.1263 1.3475-.7663 2.09-2.3538 2.73l-.185.0725.1713.1025c.6787.3963 1.0537 1.1675.9712 2.0025-.3512 3.6625-3.4137 3.6625-6.655 3.6625h-2.6175c-.5712-.005-1.2262.0387-1.445-.1862-.3225-.3313-.1275-.8738-.1275-.8738l2.905-9.385c.1713-.5362.4738-.835 1.6463-.835zm22.1688 2.2513c-1.685.0288-2.695.9525-3.2763 2.9837l-.5125 1.855c-.0738.2888-.1025.5425-.0888.7713.0888.7575.6688 1.1425 1.7238 1.1675 1.69-.03 2.695-.9525 3.2762-2.9838l.5175-1.855c.0688-.2887.0975-.5475.0888-.7712-.0888-.7575-.67-1.1475-1.7287-1.1675zm-2.9838 9.185c-1.5037 0-2.8175-.5525-3.515-1.47-.5375-.7125-.6737-1.6213-.3962-2.6225l.5812-2.055C56.196 1.6654 58.0223.2392 62.031.2392h.1663c1.5087 0 2.8225.5525 3.52 1.47.5375.7125.6737 1.6212.3962 2.6225l-.5812 2.055c-1.1425 4.0187-2.3688 5.445-6.9825 5.445zm39.4388-9.2338l-2.4275-.005c-.8975 0-1.7475.1463-1.85 1.2013-.0438.435.2925.6537.9662.9275l1.9975.7175c1.1325.4012 1.7288 1.3237 1.5925 2.4662-.3712 3.13-2.6475 3.77-5.9525 3.77h-3.735c-.1562 0-.2787-.1375-.2587-.2987.2237-1.9475 2.25-1.8988 2.25-1.8988h2.4562c1.3238 0 2.0413-.5075 2.1388-1.5137.0487-.4888-.2488-.855-.9613-1.1775l-1.9825-.7125c-1.0887-.4438-1.6612-1.24-1.5587-2.1875C90.8198.9717 92.9098.3854 96.181.3854h3.6913c.1525 0 .2637.1375.235.2888-.1175.6-.5663 1.9237-2.285 1.9237zm-18.1688 9.0775c.1613 0 .3363-.1275.38-.2787l1.3975-4.5063a.411.411 0 01.3513.2188l1.9825 3.8525c.22.435.6687.7087 1.1525.7087h2.065c.1362 0 .23-.1462.1662-.2687l-2.505-4.8925c-.0638-.1175-.0337-.2638.0637-.3513l6.01-5.5375c.0888-.0837.03-.23-.0925-.23h-2.4312c-.405 0-.8013.1613-1.0888.45L82.3485 5.288c-.1275.1225-.2975.1863-.4738.1863l1.4888-4.825c.04-.1313-.0575-.2588-.195-.2588H80.786c-.1613 0-.3175.1075-.3613.2588l-3.34 10.7762c-.0337.1275.0538.25.185.25h2.3838zm-6.4112-9.0287c-1.685.0288-2.6913.9525-3.2713 2.9837l-.5175 1.855c-.0688.2888-.0987.5425-.0888.7713.0888.7575.6688 1.1425 1.7238 1.1675 1.69-.03 2.7-.9525 3.2812-2.9838l.5125-1.855c.0688-.2887.0975-.5475.0888-.7712-.0888-.7575-.67-1.1475-1.7237-1.1675zm-2.9788 9.185c-1.5087 0-2.8225-.5525-3.52-1.47-.5375-.7125-.6737-1.6213-.3962-2.6225l.5812-2.055C68.071 1.6654 69.8973.2392 73.911.2392h.1663c1.5037 0 2.8175.5525 3.515 1.47.5375.7125.6737 1.6212.3962 2.6225l-.5812 2.055c-1.1425 4.0187-2.3688 5.445-6.9775 5.445zM47.8123 2.5592l-.9663 3.11 1.84.005c1.4163 0 2.6375 0 2.8125-1.8313.035-.3412-.0387-.605-.2187-.8062-.2988-.3313-.8888-.4775-1.925-.4775zm-2.5338-1.3338c.17-.5362.4738-.835 1.645-.835h3.14c1.9575 0 3.2375.3563 3.9113 1.0988.4387.4887.61 1.1287.5325 1.9587-.1963 2.0063-1.2313 3.1588-3.4725 3.8525l-.0975.0337 1.5525 4.0725c.0487.1263-.0488.2688-.185.2688H50.376c-.5325 0-.9862-.3125-1.1325-.7763L48.076 7.8316h-1.9037l-1.1038 3.565c-.0438.1463-.22.2788-.3812.2788h-2.3875c-.1275 0-.22-.1275-.1813-.25l3.16-10.2z" fill="#0363f7"/></svg>